<svg width="300" height="99" viewBox="0 0 300 99" fill="none" xmlns="http://www.w3.org/2000/svg">
<path d="M50.7394 96.0233C84.1068 63.716 99.0269 44.6142 99.2323 11.4058C99.2362 10.7287 98.7924 10.1194 98.1464 9.91649C79.1724 3.95689 64.1015 0.629145 49.6949 0.0530084C48.819 0.0179834 48.0967 0.723158 48.0967 1.59967V94.9121C48.0967 96.2859 49.7525 96.979 50.7394 96.0233Z" fill="white"/>
<path d="M48.4946 96.0233C15.1272 63.716 0.207191 44.6142 0.00198238 11.4058C-0.00219695 10.7287 0.44183 10.1194 1.08782 9.91649C20.0619 3.95689 35.1327 0.629145 49.5392 0.0530084C50.415 0.0179834 51.1374 0.723158 51.1374 1.59967V94.9121C51.1374 96.2859 49.4815 96.979 48.4946 96.0233Z" fill="#F3F2F2"/>
<path d="M154.15 58.7003C153.516 64.5344 151.424 68.9985 147.872 72.0932C144.347 75.1879 139.641 76.735 133.757 76.735C129.647 76.735 126.007 75.7076 122.837 73.6532C119.691 71.5988 117.256 68.6942 115.531 64.9403C113.807 61.1607 112.932 56.8485 112.906 52.0041V44.8131C112.906 39.8919 113.769 35.5292 115.494 31.7244C117.218 27.9196 119.691 24.9899 122.913 22.9354C126.16 20.8554 129.888 19.8154 134.099 19.8154C140.034 19.8154 144.714 21.4261 148.139 24.6475C151.588 27.8435 153.592 32.2698 154.15 37.9262H149.432C148.265 28.5157 143.154 23.8105 134.099 23.8105C129.077 23.8105 125.069 25.6875 122.076 29.4415C119.108 33.1956 117.624 38.3828 117.624 45.0032V51.7758C117.624 58.1677 119.07 63.2662 121.962 67.0707C124.879 70.8757 128.81 72.7781 133.757 72.7781C138.652 72.7781 142.342 71.6112 144.829 69.2775C147.314 66.9188 148.849 63.3928 149.432 58.7003H154.15ZM178.006 48.4657L170.206 56.1511V75.9741H165.527V20.5764H170.206V50.4441L198.59 20.5764H204.488L181.278 45.2315L206.276 75.9741H200.569L178.006 48.4657ZM245.541 34.8443C245.541 37.7106 244.704 40.285 243.03 42.5681C241.356 44.8255 239.149 46.4868 236.41 47.5524C239.606 48.6429 242.168 50.4059 244.095 52.841C246.023 55.2761 246.987 58.0918 246.987 61.2877C246.987 66.0309 245.376 69.7976 242.155 72.588C238.934 75.3527 234.672 76.735 229.371 76.735C224.019 76.735 219.732 75.3527 216.511 72.588C213.315 69.8229 211.717 66.0562 211.717 61.2877C211.717 58.1424 212.643 55.3396 214.494 52.8792C216.346 50.4188 218.882 48.6429 222.104 47.5524C219.364 46.4868 217.183 44.8255 215.56 42.5681C213.936 40.285 213.125 37.7106 213.125 34.8443C213.125 30.2532 214.596 26.6006 217.538 23.8865C220.506 21.1724 224.424 19.8154 229.295 19.8154C234.165 19.8154 238.084 21.1851 241.051 23.9246C244.045 26.664 245.541 30.3039 245.541 34.8443ZM242.421 61.3255C242.421 57.8759 241.191 55.0477 238.731 52.841C236.27 50.6089 233.125 49.4927 229.295 49.4927C225.465 49.4927 222.332 50.5836 219.897 52.765C217.462 54.9464 216.244 57.7999 216.244 61.3255C216.244 64.8515 217.424 67.6668 219.783 69.7723C222.142 71.8524 225.338 72.8923 229.371 72.8923C233.302 72.8923 236.46 71.8524 238.845 69.7723C241.229 67.6922 242.421 64.8768 242.421 61.3255ZM240.975 34.8063C240.975 31.6356 239.872 28.9976 237.665 26.8923C235.484 24.7616 232.694 23.6963 229.295 23.6963C225.845 23.6963 223.042 24.7236 220.886 26.7782C218.756 28.8074 217.69 31.4834 217.69 34.8063C217.69 38.0531 218.756 40.6657 220.886 42.6441C223.042 44.6225 225.858 45.6118 229.333 45.6118C232.757 45.6118 235.547 44.6225 237.703 42.6441C239.885 40.6403 240.975 38.0277 240.975 34.8063ZM281.496 65.5111C281.496 63.2533 280.583 61.4397 278.757 60.0702C276.956 58.7003 274.229 57.6351 270.576 56.8742C266.924 56.0876 264.083 55.2001 262.054 54.2109C260.05 53.1959 258.553 51.9659 257.564 50.5201C256.6 49.0742 256.118 47.3241 256.118 45.2693C256.118 42.0227 257.475 39.3468 260.189 37.2413C262.904 35.1107 266.379 34.0453 270.615 34.0453C275.206 34.0453 278.884 35.1868 281.648 37.4696C284.439 39.7271 285.834 42.6823 285.834 46.3349H281.268C281.268 43.9251 280.254 41.9214 278.224 40.3232C276.22 38.7252 273.684 37.9262 270.615 37.9262C267.622 37.9262 265.212 38.5984 263.385 39.9429C261.585 41.2618 260.684 42.9866 260.684 45.1174C260.684 47.1718 261.432 48.7699 262.929 49.9111C264.451 51.0273 267.203 52.0548 271.185 52.9933C275.193 53.9315 278.186 54.9336 280.165 55.9988C282.169 57.0644 283.653 58.3454 284.616 59.8419C285.58 61.3384 286.062 63.152 286.062 65.2828C286.062 68.7577 284.654 71.5353 281.839 73.615C279.049 75.6951 275.396 76.735 270.881 76.735C266.087 76.735 262.194 75.581 259.2 73.2725C256.233 70.9392 254.749 67.9968 254.749 64.4455H259.314C259.492 67.1089 260.608 69.189 262.663 70.6855C264.743 72.1567 267.482 72.8923 270.881 72.8923C274.052 72.8923 276.613 72.1945 278.567 70.7997C280.52 69.4045 281.496 67.6415 281.496 65.5111Z" fill="#F3F2F2"/>
<path d="M57.9913 38.2588L54.1606 43.9007H27.2725L30.5058 51.2857C43.8773 52.4701 66.5923 53.9082 69.2752 50.3191C73.1055 45.1949 72.6823 42.9687 74.8653 38.2588H57.9913Z" fill="black"/>
<path d="M34.7466 37.6387H30.5077C30.0774 37.6387 29.7285 37.9875 29.7285 38.4179V42.6567C29.7285 43.0871 30.0774 43.436 30.5077 43.436H34.7466C35.1769 43.436 35.5258 43.0871 35.5258 42.6567V38.4179C35.5258 37.9875 35.1769 37.6387 34.7466 37.6387Z" fill="black"/>
<path d="M41.4771 37.6387H37.2382C36.8079 37.6387 36.459 37.9875 36.459 38.4179V42.6567C36.459 43.0871 36.8079 43.436 37.2382 43.436H41.4771C41.9074 43.436 42.2563 43.0871 42.2563 42.6567V38.4179C42.2563 37.9875 41.9074 37.6387 41.4771 37.6387Z" fill="black"/>
<path d="M48.2056 37.6387H43.9667C43.5364 37.6387 43.1875 37.9875 43.1875 38.4179V42.6567C43.1875 43.0871 43.5364 43.436 43.9667 43.436H48.2056C48.6359 43.436 48.9848 43.0871 48.9848 42.6567V38.4179C48.9848 37.9875 48.6359 37.6387 48.2056 37.6387Z" fill="black"/>
<path d="M54.9341 37.6387H50.6952C50.2649 37.6387 49.916 37.9875 49.916 38.4179V42.6567C49.916 43.0871 50.2649 43.436 50.6952 43.436H54.9341C55.3644 43.436 55.7133 43.0871 55.7133 42.6567V38.4179C55.7133 37.9875 55.3644 37.6387 54.9341 37.6387Z" fill="black"/>
<path d="M61.6646 37.6387H57.4257C56.9954 37.6387 56.6465 37.9875 56.6465 38.4179V42.6567C56.6465 43.0871 56.9954 43.436 57.4257 43.436H61.6646C62.0949 43.436 62.4438 43.0871 62.4438 42.6567V38.4179C62.4438 37.9875 62.0949 37.6387 61.6646 37.6387Z" fill="black"/>
<path d="M48.2056 30.7021H43.9667C43.5364 30.7021 43.1875 31.051 43.1875 31.4814V35.7202C43.1875 36.1506 43.5364 36.4994 43.9667 36.4994H48.2056C48.6359 36.4994 48.9848 36.1506 48.9848 35.7202V31.4814C48.9848 31.051 48.6359 30.7021 48.2056 30.7021Z" fill="black"/>
<path d="M48.2056 23.7666H43.9667C43.5364 23.7666 43.1875 24.1155 43.1875 24.5458V28.7847C43.1875 29.215 43.5364 29.5639 43.9667 29.5639H48.2056C48.6359 29.5639 48.9848 29.215 48.9848 28.7847V24.5458C48.9848 24.1155 48.6359 23.7666 48.2056 23.7666Z" fill="black"/>
<path d="M41.4771 30.7021H37.2382C36.8079 30.7021 36.459 31.051 36.459 31.4814V35.7202C36.459 36.1506 36.8079 36.4994 37.2382 36.4994H41.4771C41.9074 36.4994 42.2563 36.1506 42.2563 35.7202V31.4814C42.2563 31.051 41.9074 30.7021 41.4771 30.7021Z" fill="black"/>
<path d="M55.0083 30.7002H50.7695C50.3391 30.7002 49.9902 31.0491 49.9902 31.4794V35.7183C49.9902 36.1486 50.3391 36.4975 50.7695 36.4975H55.0083C55.4387 36.4975 55.7875 36.1486 55.7875 35.7183V31.4794C55.7875 31.0491 55.4387 30.7002 55.0083 30.7002Z" fill="black"/>
</svg>
