<svg width="900" height="297" viewBox="0 0 900 297" fill="none" xmlns="http://www.w3.org/2000/svg">
<path d="M152.218 288.07C252.32 191.148 297.081 133.843 297.697 34.2173C297.709 32.1861 296.377 30.3581 294.439 29.7495C237.517 11.8707 192.304 1.88744 149.085 0.159025C146.457 0.0539502 144.29 2.16947 144.29 4.79902V284.736C144.29 288.858 149.258 290.937 152.218 288.07Z" fill="white"/>
<path d="M145.484 288.07C45.3817 191.148 0.621574 133.843 0.00594713 34.2173C-0.00659084 32.1861 1.32549 30.3581 3.26347 29.7495C60.1856 11.8707 105.398 1.88744 148.618 0.159025C151.245 0.0539502 153.412 2.16947 153.412 4.79902V284.736C153.412 288.858 148.445 290.937 145.484 288.07Z" fill="#F3F2F2"/>
<path d="M462.45 176.101C460.548 193.603 454.271 206.996 443.617 216.28C433.04 225.564 418.924 230.205 401.27 230.205C388.942 230.205 378.022 227.123 368.51 220.96C359.074 214.796 351.769 206.083 346.594 194.821C341.42 183.482 338.795 170.546 338.719 156.012V134.439C338.719 119.676 341.307 106.588 346.481 95.1732C351.655 83.7589 359.074 74.9698 368.739 68.8061C378.479 62.5661 389.665 59.4463 402.297 59.4463C420.103 59.4463 434.143 64.2784 444.416 73.9425C454.765 83.5305 460.776 96.8093 462.45 113.779H448.297C444.796 85.5471 429.463 71.4314 402.297 71.4314C387.23 71.4314 375.206 77.0624 366.227 88.3246C357.324 99.5868 352.872 115.148 352.872 135.01V155.327C352.872 174.503 357.21 189.799 365.885 201.212C374.636 212.627 386.43 218.334 401.27 218.334C415.956 218.334 427.027 214.834 434.486 207.832C441.943 200.756 446.547 190.178 448.297 176.101H462.45ZM534.019 145.397L510.619 168.453V227.922H496.58V61.7291H510.619V151.332L595.77 61.7291H613.463L543.835 135.695L618.827 227.922H601.706L534.019 145.397ZM736.624 104.533C736.624 113.132 734.112 120.855 729.09 127.704C724.067 134.477 717.447 139.461 709.229 142.657C718.817 145.929 726.503 151.218 732.286 158.523C738.07 165.828 740.961 174.275 740.961 183.863C740.961 198.093 736.128 209.393 726.464 217.764C716.801 226.058 704.017 230.205 688.113 230.205C672.056 230.205 659.196 226.058 649.532 217.764C639.944 209.469 635.149 198.169 635.149 183.863C635.149 174.427 637.928 166.019 643.482 158.638C649.038 151.256 656.647 145.929 666.31 142.657C658.092 139.461 651.548 134.477 646.679 127.704C641.808 120.855 639.374 113.132 639.374 104.533C639.374 90.7596 643.787 79.8018 652.614 71.6596C661.517 63.5173 673.273 59.4463 687.884 59.4463C702.494 59.4463 714.251 63.5554 723.154 71.7737C732.134 79.9921 736.624 90.9118 736.624 104.533ZM727.264 183.977C727.264 173.628 723.573 165.143 716.192 158.523C708.81 151.827 699.374 148.478 687.884 148.478C676.394 148.478 666.995 151.751 659.69 158.295C652.385 164.839 648.732 173.4 648.732 183.977C648.732 194.555 652.272 203.001 659.348 209.317C666.425 215.557 676.013 218.677 688.113 218.677C699.907 218.677 709.381 215.557 716.534 209.317C723.687 203.076 727.264 194.631 727.264 183.977ZM722.926 104.419C722.926 94.9069 719.616 86.993 712.996 80.6769C706.452 74.285 698.081 71.0889 687.884 71.0889C677.535 71.0889 669.126 74.1708 662.658 80.3346C656.267 86.4222 653.07 94.4503 653.07 104.419C653.07 114.159 656.267 121.997 662.658 127.932C669.126 133.868 677.573 136.835 687.998 136.835C698.271 136.835 706.642 133.868 713.109 127.932C719.654 121.921 722.926 114.083 722.926 104.419ZM844.489 196.533C844.489 189.76 841.75 184.319 836.271 180.211C830.868 176.101 822.687 172.905 811.729 170.623C800.772 168.263 792.25 165.6 786.161 162.633C780.15 159.588 775.66 155.898 772.693 151.56C769.801 147.223 768.355 141.972 768.355 135.808C768.355 126.068 772.426 118.041 780.568 111.724C788.711 105.332 799.136 102.136 811.844 102.136C825.618 102.136 836.651 105.56 844.945 112.409C853.316 119.181 857.502 128.047 857.502 139.005H843.805C843.805 131.775 840.761 125.764 834.672 120.97C828.661 116.176 821.052 113.779 811.844 113.779C802.865 113.779 795.636 115.795 790.156 119.829C784.754 123.785 782.053 128.96 782.053 135.352C782.053 141.515 784.297 146.31 788.788 149.733C793.353 153.082 801.61 156.164 813.556 158.98C825.579 161.795 834.559 164.801 840.494 167.996C846.506 171.193 850.958 175.036 853.849 179.526C856.741 184.015 858.187 189.456 858.187 195.848C858.187 206.273 853.963 214.606 845.517 220.845C837.146 227.085 826.188 230.205 812.644 230.205C798.261 230.205 786.581 226.743 777.601 219.818C768.698 212.818 764.246 203.991 764.246 193.337H777.943C778.476 201.327 781.825 207.567 787.988 212.057C794.229 216.47 802.447 218.677 812.644 218.677C822.155 218.677 829.84 216.583 835.7 212.399C841.559 208.213 844.489 202.925 844.489 196.533Z" fill="#F3F2F2"/>
<path d="M173.974 114.776L162.482 131.702H81.8174L91.5174 153.857C131.632 157.41 199.777 161.725 207.826 150.957C219.316 135.585 218.047 128.906 224.596 114.776H173.974Z" fill="black"/>
<path d="M104.24 112.916H91.5232C90.2322 112.916 89.1855 113.963 89.1855 115.254V127.97C89.1855 129.261 90.2322 130.308 91.5232 130.308H104.24C105.531 130.308 106.577 129.261 106.577 127.97V115.254C106.577 113.963 105.531 112.916 104.24 112.916Z" fill="black"/>
<path d="M124.431 112.916H111.715C110.424 112.916 109.377 113.963 109.377 115.254V127.97C109.377 129.261 110.424 130.308 111.715 130.308H124.431C125.722 130.308 126.769 129.261 126.769 127.97V115.254C126.769 113.963 125.722 112.916 124.431 112.916Z" fill="black"/>
<path d="M144.617 112.916H131.9C130.609 112.916 129.562 113.963 129.562 115.254V127.97C129.562 129.261 130.609 130.308 131.9 130.308H144.617C145.908 130.308 146.954 129.261 146.954 127.97V115.254C146.954 113.963 145.908 112.916 144.617 112.916Z" fill="black"/>
<path d="M164.802 112.916H152.086C150.795 112.916 149.748 113.963 149.748 115.254V127.97C149.748 129.261 150.795 130.308 152.086 130.308H164.802C166.093 130.308 167.14 129.261 167.14 127.97V115.254C167.14 113.963 166.093 112.916 164.802 112.916Z" fill="black"/>
<path d="M184.994 112.916H172.277C170.986 112.916 169.939 113.963 169.939 115.254V127.97C169.939 129.261 170.986 130.308 172.277 130.308H184.994C186.285 130.308 187.331 129.261 187.331 127.97V115.254C187.331 113.963 186.285 112.916 184.994 112.916Z" fill="black"/>
<path d="M144.617 92.1064H131.9C130.609 92.1064 129.562 93.1531 129.562 94.4441V107.161C129.562 108.452 130.609 109.498 131.9 109.498H144.617C145.908 109.498 146.954 108.452 146.954 107.161V94.4441C146.954 93.1531 145.908 92.1064 144.617 92.1064Z" fill="black"/>
<path d="M144.617 71.2988H131.9C130.609 71.2988 129.562 72.3454 129.562 73.6365V86.353C129.562 87.6441 130.609 88.6907 131.9 88.6907H144.617C145.908 88.6907 146.954 87.6441 146.954 86.353V73.6365C146.954 72.3454 145.908 71.2988 144.617 71.2988Z" fill="black"/>
<path d="M124.431 92.1064H111.715C110.424 92.1064 109.377 93.1531 109.377 94.4441V107.161C109.377 108.452 110.424 109.498 111.715 109.498H124.431C125.722 109.498 126.769 108.452 126.769 107.161V94.4441C126.769 93.1531 125.722 92.1064 124.431 92.1064Z" fill="black"/>
<path d="M165.025 92.1016H152.308C151.017 92.1016 149.971 93.1482 149.971 94.4392V107.156C149.971 108.447 151.017 109.493 152.308 109.493H165.025C166.316 109.493 167.363 108.447 167.363 107.156V94.4392C167.363 93.1482 166.316 92.1016 165.025 92.1016Z" fill="black"/>
</svg>
