<svg width="900" height="900" viewBox="0 0 900 900" fill="none" xmlns="http://www.w3.org/2000/svg">
<path d="M468.13 868.96C764.068 579.744 897.145 405.966 899.954 107.482C900.029 99.3067 894.695 91.9719 886.897 89.5137C718.446 36.4093 583.917 6.45497 455.538 0.68501C444.947 0.208982 436.21 8.74224 436.21 19.3443V855.521C436.21 872.164 456.225 880.594 468.13 868.96Z" fill="white"/>
<path d="M431.873 868.96C135.932 579.744 2.85776 405.966 0.0476965 107.482C-0.0292725 99.3067 5.30913 91.9719 13.1067 89.5137C181.555 36.4093 316.086 6.45497 444.465 0.68501C455.056 0.208982 463.792 8.74229 463.792 19.3443V855.521C463.792 872.164 443.777 880.594 431.873 868.96Z" fill="#F3F2F2"/>
<path d="M525.948 349.315L491.206 400.829H247.345L276.669 468.257C397.942 479.067 603.956 492.2 628.289 459.431C663.026 412.644 659.186 392.318 678.986 349.315H525.948Z" fill="black"/>
<path d="M312.779 343.652H279.049C273.844 343.652 269.625 347.872 269.625 353.076V387.16C269.625 392.364 273.844 396.584 279.049 396.584H312.779C317.984 396.584 322.203 392.364 322.203 387.16V353.076C322.203 347.872 317.984 343.652 312.779 343.652Z" fill="black"/>
<path d="M373.811 343.652H340.08C334.876 343.652 330.656 347.872 330.656 353.076V387.16C330.656 392.364 334.876 396.584 340.08 396.584H373.811C379.015 396.584 383.235 392.364 383.235 387.16V353.076C383.235 347.872 379.015 343.652 373.811 343.652Z" fill="black"/>
<path d="M434.839 343.652H401.109C395.904 343.652 391.685 347.872 391.685 353.076V387.16C391.685 392.364 395.904 396.584 401.109 396.584H434.839C440.044 396.584 444.263 392.364 444.263 387.16V353.076C444.263 347.872 440.044 343.652 434.839 343.652Z" fill="black"/>
<path d="M495.87 343.652H462.14C456.935 343.652 452.716 347.872 452.716 353.076V387.16C452.716 392.364 456.935 396.584 462.14 396.584H495.87C501.075 396.584 505.294 392.364 505.294 387.16V353.076C505.294 347.872 501.075 343.652 495.87 343.652Z" fill="black"/>
<path d="M556.898 343.652H523.168C517.963 343.652 513.744 347.872 513.744 353.076V387.16C513.744 392.364 517.963 396.584 523.168 396.584H556.898C562.103 396.584 566.323 392.364 566.323 387.16V353.076C566.323 347.872 562.103 343.652 556.898 343.652Z" fill="black"/>
<path d="M434.839 280.321H401.109C395.904 280.321 391.685 284.541 391.685 289.745V323.828C391.685 329.033 395.904 333.253 401.109 333.253H434.839C440.044 333.253 444.263 329.033 444.263 323.828V289.745C444.263 284.541 440.044 280.321 434.839 280.321Z" fill="black"/>
<path d="M434.839 216.994H401.109C395.904 216.994 391.685 221.213 391.685 226.418V260.501C391.685 265.706 395.904 269.925 401.109 269.925H434.839C440.044 269.925 444.263 265.706 444.263 260.501V226.418C444.263 221.213 440.044 216.994 434.839 216.994Z" fill="black"/>
<path d="M373.811 280.321H340.08C334.876 280.321 330.656 284.541 330.656 289.745V323.828C330.656 329.033 334.876 333.253 340.08 333.253H373.811C379.015 333.253 383.235 329.033 383.235 323.828V289.745C383.235 284.541 379.015 280.321 373.811 280.321Z" fill="black"/>
<path d="M496.541 280.307H462.811C457.606 280.307 453.387 284.526 453.387 289.731V323.814C453.387 329.019 457.606 333.238 462.811 333.238H496.541C501.746 333.238 505.965 329.019 505.965 323.814V289.731C505.965 284.526 501.746 280.307 496.541 280.307Z" fill="black"/>
</svg>
