<svg width="900" height="780" viewBox="0 0 900 780" fill="none" xmlns="http://www.w3.org/2000/svg">
<path d="M454.985 449.925C611.332 298.546 681.241 209.043 682.203 53.4416C682.222 50.2691 680.142 47.414 677.116 46.4634C588.211 18.5391 517.595 2.94662 450.091 0.247071C445.987 0.0829576 442.603 3.38712 442.603 7.49412V444.719C442.603 451.156 450.361 454.403 454.985 449.925Z" fill="white"/>
<path d="M444.468 449.925C288.122 298.546 218.212 209.043 217.252 53.4416C217.232 50.2691 219.311 47.414 222.34 46.4634C311.245 18.5391 381.859 2.94662 449.363 0.247071C453.467 0.0829576 456.851 3.38712 456.851 7.49412V444.719C456.851 451.156 449.092 454.403 444.468 449.925Z" fill="#F3F2F2"/>
<path d="M216.606 674.843C213.636 702.179 203.831 723.096 187.191 737.597C170.671 752.097 148.624 759.347 121.05 759.347C101.796 759.347 84.7413 754.533 69.8847 744.906C55.1471 735.28 43.7374 721.671 35.6555 704.081C27.5737 686.372 23.4733 666.166 23.3545 643.467V609.773C23.3545 586.715 27.3954 566.272 35.4773 548.445C43.5592 530.617 55.1471 516.891 70.2414 507.263C85.4543 497.518 102.925 492.644 122.655 492.644C150.466 492.644 172.394 500.19 188.44 515.286C204.603 530.261 213.992 551.001 216.606 577.505H194.501C189.033 533.41 165.085 511.363 122.655 511.363C99.1223 511.363 80.3437 520.158 66.3192 537.748C52.4135 555.339 45.4607 579.644 45.4607 610.664V642.398C45.4607 672.348 52.2354 696.237 65.7845 714.064C79.4523 731.892 97.8743 740.806 121.05 740.806C143.989 740.806 161.282 735.339 172.929 724.404C184.577 713.352 191.768 696.83 194.501 674.843H216.606ZM328.387 626.888L291.839 662.899V755.781H269.913V496.209H291.839V636.158L424.835 496.209H452.468L343.718 611.734L460.846 755.781H434.105L328.387 626.888ZM644.829 563.064C644.829 576.493 640.906 588.557 633.062 599.254C625.217 609.832 614.877 617.616 602.042 622.609C617.017 627.718 629.022 635.979 638.055 647.389C647.088 658.798 651.604 671.992 651.604 686.967C651.604 709.191 644.055 726.841 628.962 739.915C613.868 752.869 593.902 759.347 569.061 759.347C543.984 759.347 523.897 752.869 508.803 739.915C493.828 726.959 486.34 709.31 486.34 686.967C486.34 672.229 490.679 659.096 499.354 647.568C508.031 636.039 519.915 627.718 535.009 622.609C522.174 617.616 511.952 609.832 504.347 599.254C496.74 588.557 492.937 576.493 492.937 563.064C492.937 541.552 499.831 524.437 513.617 511.721C527.523 499.002 545.884 492.644 568.704 492.644C591.523 492.644 609.886 499.062 623.792 511.898C637.817 524.735 644.829 541.789 644.829 563.064ZM630.21 687.144C630.21 670.98 624.445 657.729 612.917 647.389C601.388 636.93 586.651 631.7 568.704 631.7C550.758 631.7 536.079 636.811 524.669 647.033C513.26 657.254 507.555 670.624 507.555 687.144C507.555 703.665 513.082 716.857 524.134 726.722C535.188 736.469 550.163 741.341 569.061 741.341C587.483 741.341 602.279 736.469 613.452 726.722C624.624 716.975 630.21 703.784 630.21 687.144ZM623.436 562.886C623.436 548.029 618.266 535.668 607.926 525.803C597.704 515.821 584.63 510.828 568.704 510.828C552.54 510.828 539.407 515.642 529.304 525.268C519.322 534.777 514.329 547.315 514.329 562.886C514.329 578.098 519.322 590.34 529.304 599.61C539.407 608.88 552.6 613.516 568.882 613.516C584.927 613.516 598.002 608.88 608.103 599.61C618.324 590.221 623.436 577.979 623.436 562.886ZM813.301 706.756C813.301 696.177 809.022 687.679 800.465 681.262C792.026 674.843 779.249 669.852 762.134 666.287C745.02 662.601 731.709 658.442 722.2 653.807C712.811 649.052 705.799 643.289 701.164 636.514C696.648 629.739 694.39 621.539 694.39 611.911C694.39 596.699 700.748 584.161 713.465 574.295C726.182 564.311 742.466 559.32 762.313 559.32C783.825 559.32 801.059 564.667 814.013 575.365C827.088 585.942 833.625 599.789 833.625 616.904H812.231C812.231 605.613 807.477 596.224 797.968 588.735C788.579 581.249 776.695 577.505 762.313 577.505C748.289 577.505 736.998 580.654 728.44 586.954C720.002 593.133 715.783 601.215 715.783 611.199C715.783 620.825 719.288 628.314 726.302 633.661C733.433 638.891 746.329 643.705 764.988 648.103C783.765 652.498 797.791 657.194 807.061 662.185C816.45 667.178 823.404 673.18 827.92 680.192C832.436 687.204 834.695 695.702 834.695 705.686C834.695 721.968 828.097 734.983 814.906 744.727C801.831 754.474 784.716 759.347 763.562 759.347C741.098 759.347 722.856 753.939 708.83 743.123C694.924 732.19 687.971 718.403 687.971 701.763H709.365C710.197 714.243 715.427 723.989 725.053 731.001C734.8 737.894 747.636 741.341 763.562 741.341C778.418 741.341 790.421 738.071 799.573 731.536C808.724 724.999 813.301 716.738 813.301 706.756Z" fill="#F3F2F2"/>
<path d="M488.966 179.268L471.017 205.704H345.03L360.181 240.307C422.834 245.855 529.267 252.594 541.838 235.778C559.785 211.767 557.803 201.335 568.031 179.268H488.966Z" fill="black"/>
<path d="M380.055 176.358H360.193C358.177 176.358 356.542 177.993 356.542 180.01V199.871C356.542 201.887 358.177 203.522 360.193 203.522H380.055C382.071 203.522 383.706 201.887 383.706 199.871V180.01C383.706 177.993 382.071 176.358 380.055 176.358Z" fill="black"/>
<path d="M411.585 176.358H391.723C389.707 176.358 388.072 177.993 388.072 180.01V199.871C388.072 201.887 389.707 203.522 391.723 203.522H411.585C413.601 203.522 415.236 201.887 415.236 199.871V180.01C415.236 177.993 413.601 176.358 411.585 176.358Z" fill="black"/>
<path d="M443.113 176.358H423.252C421.235 176.358 419.601 177.993 419.601 180.01V199.871C419.601 201.887 421.235 203.522 423.252 203.522H443.113C445.13 203.522 446.764 201.887 446.764 199.871V180.01C446.764 177.993 445.13 176.358 443.113 176.358Z" fill="black"/>
<path d="M474.643 176.358H454.782C452.766 176.358 451.131 177.993 451.131 180.01V199.871C451.131 201.887 452.766 203.522 454.782 203.522H474.643C476.66 203.522 478.295 201.887 478.295 199.871V180.01C478.295 177.993 476.66 176.358 474.643 176.358Z" fill="black"/>
<path d="M506.173 176.358H486.311C484.295 176.358 482.66 177.993 482.66 180.01V199.871C482.66 201.887 484.295 203.522 486.311 203.522H506.173C508.189 203.522 509.824 201.887 509.824 199.871V180.01C509.824 177.993 508.189 176.358 506.173 176.358Z" fill="black"/>
<path d="M443.113 143.859H423.252C421.235 143.859 419.601 145.494 419.601 147.51V167.372C419.601 169.388 421.235 171.023 423.252 171.023H443.113C445.13 171.023 446.764 169.388 446.764 167.372V147.51C446.764 145.494 445.13 143.859 443.113 143.859Z" fill="black"/>
<path d="M443.113 111.359H423.252C421.235 111.359 419.601 112.994 419.601 115.01V134.872C419.601 136.888 421.235 138.523 423.252 138.523H443.113C445.13 138.523 446.764 136.888 446.764 134.872V115.01C446.764 112.994 445.13 111.359 443.113 111.359Z" fill="black"/>
<path d="M411.585 143.859H391.723C389.707 143.859 388.072 145.494 388.072 147.51V167.372C388.072 169.388 389.707 171.023 391.723 171.023H411.585C413.601 171.023 415.236 169.388 415.236 167.372V147.51C415.236 145.494 413.601 143.859 411.585 143.859Z" fill="black"/>
<path d="M474.991 143.851H455.13C453.113 143.851 451.479 145.485 451.479 147.502V167.363C451.479 169.38 453.113 171.014 455.13 171.014H474.991C477.008 171.014 478.642 169.38 478.642 167.363V147.502C478.642 145.485 477.008 143.851 474.991 143.851Z" fill="black"/>
</svg>
