<svg width="300" height="300" viewBox="0 0 300 300" fill="none" xmlns="http://www.w3.org/2000/svg">
<path d="M152.211 293.392C254.1 194.189 299.535 135.964 299.997 34.1617C300.005 32.4266 298.868 30.8618 297.213 30.338C239.296 11.9994 193.408 1.80594 149.508 0.131801C147.259 0.0460603 145.404 1.85572 145.404 4.10571V290.56C145.404 294.093 149.68 295.857 152.211 293.392Z" fill="#2F8ACF"/>
<path d="M147.789 293.392C45.9003 194.189 0.464539 135.964 0.00282288 34.1617C-0.0050354 32.4266 1.13242 30.8618 2.78656 30.338C60.7044 11.9994 106.592 1.80594 150.492 0.131801C152.741 0.0460603 154.596 1.85572 154.596 4.10571V290.56C154.596 294.093 150.32 295.857 147.789 293.392Z" fill="#0071B4"/>
<path d="M175.316 116.439L163.737 133.611H82.4492L92.224 156.087C132.648 159.69 201.32 164.067 209.43 153.145C221.009 137.549 219.73 130.774 226.33 116.439H175.316Z" fill="white"/>
<rect x="89.877" y="114.551" width="17.5261" height="17.6437" rx="2" fill="white"/>
<rect x="110.219" y="114.551" width="17.5261" height="17.6437" rx="2" fill="white"/>
<rect x="130.562" y="114.551" width="17.5261" height="17.6437" rx="2" fill="white"/>
<rect x="150.906" y="114.551" width="17.5261" height="17.6437" rx="2" fill="white"/>
<rect x="171.25" y="114.551" width="17.5261" height="17.6437" rx="2" fill="white"/>
<rect x="130.562" y="93.4404" width="17.5261" height="17.6437" rx="2" fill="white"/>
<rect x="130.562" y="72.3311" width="17.5261" height="17.6437" rx="2" fill="white"/>
<rect x="110.219" y="93.4404" width="17.5261" height="17.6437" rx="2" fill="white"/>
<rect x="151.129" y="93.4355" width="17.5261" height="17.6437" rx="2" fill="white"/>
</svg>
