<svg width="1712" height="254" viewBox="0 0 1712 254" fill="none" xmlns="http://www.w3.org/2000/svg">
<path d="M130.231 246.459C215.874 163.537 254.169 114.509 254.696 29.274C254.706 27.5362 253.567 25.9722 251.909 25.4515C203.209 10.1552 164.527 1.61398 127.55 0.135229C125.302 0.0453314 123.448 1.85528 123.448 4.105V243.607C123.448 247.133 127.698 248.912 130.231 246.459Z" fill="#232526"/>
<path d="M124.47 246.459C38.827 163.537 0.532242 114.509 0.00553894 29.274C-0.00518799 27.5362 1.13448 25.9722 2.79253 25.4515C51.4926 10.1552 90.1744 1.61398 127.151 0.135229C129.399 0.0453314 131.253 1.85528 131.253 4.105V243.607C131.253 247.133 127.003 248.912 124.47 246.459Z" fill="black"/>
<path d="M374.43 130.078C373.258 140.859 369.391 149.109 362.828 154.828C356.312 160.547 347.617 163.406 336.742 163.406C329.148 163.406 322.422 161.508 316.562 157.711C310.75 153.914 306.25 148.547 303.062 141.609C299.875 134.625 298.258 126.656 298.211 117.703V104.414C298.211 95.3203 299.805 87.2578 302.992 80.2266C306.18 73.1953 310.75 67.7812 316.703 63.9844C322.703 60.1406 329.594 58.2188 337.375 58.2188C348.344 58.2188 356.992 61.1953 363.32 67.1484C369.695 73.0547 373.398 81.2344 374.43 91.6875H365.711C363.555 74.2969 354.109 65.6016 337.375 65.6016C328.094 65.6016 320.688 69.0703 315.156 76.0078C309.672 82.9453 306.93 92.5312 306.93 104.766V117.281C306.93 129.094 309.602 138.516 314.945 145.547C320.336 152.578 327.602 156.094 336.742 156.094C345.789 156.094 352.609 153.938 357.203 149.625C361.797 145.266 364.633 138.75 365.711 130.078H374.43ZM388.844 122.836C388.844 115.523 390.25 108.938 393.062 103.078C395.922 97.2188 399.93 92.6719 405.086 89.4375C410.289 86.1562 416.172 84.5156 422.734 84.5156C432.859 84.5156 441.062 88.0781 447.344 95.2031C453.625 102.281 456.766 111.68 456.766 123.398V125.156C456.766 132.516 455.336 139.148 452.477 145.055C449.664 150.914 445.68 155.438 440.523 158.625C435.367 161.812 429.484 163.406 422.875 163.406C412.797 163.406 404.594 159.867 398.266 152.789C391.984 145.664 388.844 136.242 388.844 124.523V122.836ZM397.281 125.156C397.281 134.25 399.625 141.727 404.312 147.586C409.047 153.398 415.234 156.305 422.875 156.305C430.469 156.305 436.609 153.398 441.297 147.586C446.031 141.727 448.398 134.016 448.398 124.453V122.836C448.398 117.023 447.32 111.703 445.164 106.875C443.008 102.047 439.984 98.3203 436.094 95.6953C432.203 93.0234 427.75 91.6875 422.734 91.6875C415.234 91.6875 409.117 94.6406 404.383 100.547C399.648 106.406 397.281 114.094 397.281 123.609V125.156ZM481.867 85.9219L482.148 98.2969C484.961 93.7031 488.477 90.2578 492.695 87.9609C496.914 85.6641 501.602 84.5156 506.758 84.5156C518.758 84.5156 526.375 89.4375 529.609 99.2812C532.328 94.5469 535.961 90.9141 540.508 88.3828C545.055 85.8047 550.07 84.5156 555.555 84.5156C571.867 84.5156 580.188 93.4219 580.516 111.234V162H572.078V111.867C572.031 105.07 570.555 100.031 567.648 96.75C564.789 93.4688 560.102 91.8281 553.586 91.8281C547.539 91.9219 542.43 93.8906 538.258 97.7344C534.086 101.531 531.766 106.172 531.297 111.656V162H522.859V111.234C522.812 104.719 521.266 99.8672 518.219 96.6797C515.219 93.4453 510.578 91.8281 504.297 91.8281C499 91.8281 494.453 93.3516 490.656 96.3984C486.859 99.3984 484.047 103.875 482.219 109.828V162H473.781V85.9219H481.867ZM663.062 124.734C663.062 136.594 660.438 146.016 655.188 153C649.938 159.938 642.906 163.406 634.094 163.406C623.688 163.406 615.719 159.75 610.188 152.438V191.25H601.82V85.9219H609.625L610.047 96.6797C615.531 88.5703 623.477 84.5156 633.883 84.5156C642.977 84.5156 650.102 87.9609 655.258 94.8516C660.461 101.742 663.062 111.305 663.062 123.539V124.734ZM654.625 123.258C654.625 113.555 652.633 105.891 648.648 100.266C644.664 94.6406 639.109 91.8281 631.984 91.8281C626.828 91.8281 622.398 93.0703 618.695 95.5547C614.992 98.0391 612.156 101.648 610.188 106.383V142.875C612.203 147.234 615.086 150.562 618.836 152.859C622.586 155.156 627.016 156.305 632.125 156.305C639.203 156.305 644.711 153.492 648.648 147.867C652.633 142.195 654.625 133.992 654.625 123.258ZM691.188 162H682.75V54H691.188V162ZM723.531 162H715.094V85.9219H723.531V162ZM713.617 63.9141C713.617 62.3203 714.133 60.9844 715.164 59.9062C716.195 58.7812 717.602 58.2188 719.383 58.2188C721.164 58.2188 722.57 58.7812 723.602 59.9062C724.68 60.9844 725.219 62.3203 725.219 63.9141C725.219 65.5078 724.68 66.8438 723.602 67.9219C722.57 69 721.164 69.5391 719.383 69.5391C717.602 69.5391 716.195 69 715.164 67.9219C714.133 66.8438 713.617 65.5078 713.617 63.9141ZM794.477 162C793.633 159.609 793.094 156.07 792.859 151.383C789.906 155.227 786.133 158.203 781.539 160.312C776.992 162.375 772.164 163.406 767.055 163.406C759.742 163.406 753.812 161.367 749.266 157.289C744.766 153.211 742.516 148.055 742.516 141.82C742.516 134.414 745.586 128.555 751.727 124.242C757.914 119.93 766.516 117.773 777.531 117.773H792.789V109.125C792.789 103.688 791.102 99.4219 787.727 96.3281C784.398 93.1875 779.523 91.6172 773.102 91.6172C767.242 91.6172 762.391 93.1172 758.547 96.1172C754.703 99.1172 752.781 102.727 752.781 106.945L744.344 106.875C744.344 100.828 747.156 95.6016 752.781 91.1953C758.406 86.7422 765.32 84.5156 773.523 84.5156C782.008 84.5156 788.688 86.6484 793.562 90.9141C798.484 95.1328 801.016 101.039 801.156 108.633V144.633C801.156 151.992 801.93 157.5 803.477 161.156V162H794.477ZM768.039 155.953C773.664 155.953 778.68 154.594 783.086 151.875C787.539 149.156 790.773 145.523 792.789 140.977V124.242H777.742C769.352 124.336 762.789 125.883 758.055 128.883C753.32 131.836 750.953 135.914 750.953 141.117C750.953 145.383 752.523 148.922 755.664 151.734C758.852 154.547 762.977 155.953 768.039 155.953ZM831.672 85.9219L831.953 98.9297C834.812 94.2422 838.375 90.6797 842.641 88.2422C846.906 85.7578 851.617 84.5156 856.773 84.5156C864.93 84.5156 871 86.8125 874.984 91.4062C878.969 96 880.984 102.891 881.031 112.078V162H872.664V112.008C872.617 105.211 871.164 100.148 868.305 96.8203C865.492 93.4922 860.969 91.8281 854.734 91.8281C849.531 91.8281 844.914 93.4688 840.883 96.75C836.898 99.9844 833.945 104.367 832.023 109.898V162H823.656V85.9219H831.672ZM915.906 66.4453V85.9219H931.656V92.8125H915.906V143.508C915.906 147.727 916.656 150.867 918.156 152.93C919.703 154.992 922.258 156.023 925.82 156.023C927.227 156.023 929.5 155.789 932.641 155.32L932.992 162.211C930.789 163.008 927.789 163.406 923.992 163.406C918.227 163.406 914.031 161.742 911.406 158.414C908.781 155.039 907.469 150.094 907.469 143.578V92.8125H893.477V85.9219H907.469V66.4453H915.906ZM1009.14 111.164L994.727 125.367V162H986.078V59.625H994.727V114.82L1047.18 59.625H1058.08L1015.19 105.188L1061.38 162H1050.84L1009.14 111.164ZM1122.2 152.367C1117.14 159.727 1109.05 163.406 1097.95 163.406C1089.84 163.406 1083.67 161.062 1079.45 156.375C1075.23 151.641 1073.08 144.656 1072.98 135.422V85.9219H1081.35V134.367C1081.35 148.852 1087.21 156.094 1098.93 156.094C1111.12 156.094 1118.83 151.055 1122.06 140.977V85.9219H1130.5V162H1122.34L1122.2 152.367ZM1213.68 124.734C1213.68 136.594 1211.05 146.016 1205.8 153C1200.55 159.938 1193.5 163.406 1184.64 163.406C1174.05 163.406 1166.03 159.469 1160.59 151.594L1160.24 162H1152.37V54H1160.73V96.9609C1166.08 88.6641 1174 84.5156 1184.5 84.5156C1193.5 84.5156 1200.6 87.9609 1205.8 94.8516C1211.05 101.695 1213.68 111.234 1213.68 123.469V124.734ZM1205.24 123.258C1205.24 113.227 1203.3 105.492 1199.41 100.055C1195.52 94.5703 1190.03 91.8281 1182.95 91.8281C1177.56 91.8281 1172.99 93.1641 1169.24 95.8359C1165.49 98.4609 1162.66 102.328 1160.73 107.438V141.75C1164.95 151.312 1172.41 156.094 1183.09 156.094C1190.03 156.094 1195.45 153.352 1199.34 147.867C1203.27 142.383 1205.24 134.18 1205.24 123.258ZM1261.77 163.406C1255.3 163.406 1249.45 161.812 1244.2 158.625C1238.99 155.438 1234.94 151.008 1232.03 145.336C1229.12 139.617 1227.67 133.219 1227.67 126.141V123.117C1227.67 115.805 1229.08 109.219 1231.89 103.359C1234.75 97.5 1238.71 92.9062 1243.77 89.5781C1248.84 86.2031 1254.32 84.5156 1260.23 84.5156C1269.46 84.5156 1276.77 87.6797 1282.16 94.0078C1287.6 100.289 1290.32 108.891 1290.32 119.812V124.523H1236.04V126.141C1236.04 134.766 1238.5 141.961 1243.42 147.727C1248.39 153.445 1254.62 156.305 1262.12 156.305C1266.62 156.305 1270.59 155.484 1274.01 153.844C1277.48 152.203 1280.62 149.578 1283.43 145.969L1288.7 149.977C1282.52 158.93 1273.54 163.406 1261.77 163.406ZM1260.23 91.6875C1253.9 91.6875 1248.55 94.0078 1244.2 98.6484C1239.88 103.289 1237.26 109.523 1236.32 117.352H1281.95V116.438C1281.72 109.125 1279.63 103.172 1275.7 98.5781C1271.76 93.9844 1266.6 91.6875 1260.23 91.6875ZM1341.86 93.0938C1340.08 92.7656 1338.18 92.6016 1336.16 92.6016C1330.91 92.6016 1326.46 94.0781 1322.8 97.0312C1319.2 99.9375 1316.62 104.18 1315.07 109.758V162H1306.7V85.9219H1314.93L1315.07 98.0156C1319.52 89.0156 1326.67 84.5156 1336.52 84.5156C1338.86 84.5156 1340.71 84.8203 1342.07 85.4297L1341.86 93.0938ZM1363.23 85.9219L1363.52 98.9297C1366.38 94.2422 1369.94 90.6797 1374.2 88.2422C1378.47 85.7578 1383.18 84.5156 1388.34 84.5156C1396.49 84.5156 1402.56 86.8125 1406.55 91.4062C1410.53 96 1412.55 102.891 1412.59 112.078V162H1404.23V112.008C1404.18 105.211 1402.73 100.148 1399.87 96.8203C1397.05 93.4922 1392.53 91.8281 1386.3 91.8281C1381.09 91.8281 1376.48 93.4688 1372.45 96.75C1368.46 99.9844 1365.51 104.367 1363.59 109.898V162H1355.22V85.9219H1363.23ZM1463.85 163.406C1457.38 163.406 1451.52 161.812 1446.27 158.625C1441.07 155.438 1437.02 151.008 1434.11 145.336C1431.2 139.617 1429.75 133.219 1429.75 126.141V123.117C1429.75 115.805 1431.16 109.219 1433.97 103.359C1436.83 97.5 1440.79 92.9062 1445.85 89.5781C1450.91 86.2031 1456.4 84.5156 1462.3 84.5156C1471.54 84.5156 1478.85 87.6797 1484.24 94.0078C1489.68 100.289 1492.4 108.891 1492.4 119.812V124.523H1438.12V126.141C1438.12 134.766 1440.58 141.961 1445.5 147.727C1450.47 153.445 1456.7 156.305 1464.2 156.305C1468.7 156.305 1472.66 155.484 1476.09 153.844C1479.55 152.203 1482.7 149.578 1485.51 145.969L1490.78 149.977C1484.59 158.93 1475.62 163.406 1463.85 163.406ZM1462.3 91.6875C1455.98 91.6875 1450.63 94.0078 1446.27 98.6484C1441.96 103.289 1439.34 109.523 1438.4 117.352H1484.03V116.438C1483.8 109.125 1481.71 103.172 1477.77 98.5781C1473.84 93.9844 1468.68 91.6875 1462.3 91.6875ZM1521.86 66.4453V85.9219H1537.61V92.8125H1521.86V143.508C1521.86 147.727 1522.61 150.867 1524.11 152.93C1525.66 154.992 1528.21 156.023 1531.77 156.023C1533.18 156.023 1535.45 155.789 1538.59 155.32L1538.95 162.211C1536.74 163.008 1533.74 163.406 1529.95 163.406C1524.18 163.406 1519.98 161.742 1517.36 158.414C1514.73 155.039 1513.42 150.094 1513.42 143.578V92.8125H1499.43V85.9219H1513.42V66.4453H1521.86ZM1584.51 163.406C1578.04 163.406 1572.18 161.812 1566.93 158.625C1561.73 155.438 1557.67 151.008 1554.77 145.336C1551.86 139.617 1550.41 133.219 1550.41 126.141V123.117C1550.41 115.805 1551.81 109.219 1554.62 103.359C1557.48 97.5 1561.45 92.9062 1566.51 89.5781C1571.57 86.2031 1577.05 84.5156 1582.96 84.5156C1592.2 84.5156 1599.51 87.6797 1604.9 94.0078C1610.34 100.289 1613.05 108.891 1613.05 119.812V124.523H1558.77V126.141C1558.77 134.766 1561.23 141.961 1566.16 147.727C1571.12 153.445 1577.36 156.305 1584.86 156.305C1589.36 156.305 1593.32 155.484 1596.74 153.844C1600.21 152.203 1603.35 149.578 1606.16 145.969L1611.44 149.977C1605.25 158.93 1596.27 163.406 1584.51 163.406ZM1582.96 91.6875C1576.63 91.6875 1571.29 94.0078 1566.93 98.6484C1562.62 103.289 1559.99 109.523 1559.05 117.352H1604.69V116.438C1604.45 109.125 1602.37 103.172 1598.43 98.5781C1594.49 93.9844 1589.34 91.6875 1582.96 91.6875ZM1675 142.664C1675 138.492 1673.31 135.141 1669.94 132.609C1666.61 130.078 1661.57 128.109 1654.82 126.703C1648.07 125.25 1642.82 123.609 1639.07 121.781C1635.37 119.906 1632.6 117.633 1630.77 114.961C1628.99 112.289 1628.1 109.055 1628.1 105.258C1628.1 99.2578 1630.61 94.3125 1635.62 90.4219C1640.64 86.4844 1647.06 84.5156 1654.89 84.5156C1663.38 84.5156 1670.17 86.625 1675.28 90.8438C1680.44 95.0156 1683.02 100.477 1683.02 107.227H1674.58C1674.58 102.773 1672.7 99.0703 1668.95 96.1172C1665.25 93.1641 1660.56 91.6875 1654.89 91.6875C1649.36 91.6875 1644.91 92.9297 1641.53 95.4141C1638.2 97.8516 1636.54 101.039 1636.54 104.977C1636.54 108.773 1637.92 111.727 1640.69 113.836C1643.5 115.898 1648.59 117.797 1655.95 119.531C1663.35 121.266 1668.88 123.117 1672.54 125.086C1676.24 127.055 1678.98 129.422 1680.77 132.188C1682.55 134.953 1683.44 138.305 1683.44 142.242C1683.44 148.664 1680.84 153.797 1675.63 157.641C1670.48 161.484 1663.73 163.406 1655.38 163.406C1646.52 163.406 1639.33 161.273 1633.8 157.008C1628.31 152.695 1625.57 147.258 1625.57 140.695H1634.01C1634.34 145.617 1636.4 149.461 1640.2 152.227C1644.04 154.945 1649.1 156.305 1655.38 156.305C1661.24 156.305 1665.98 155.016 1669.59 152.438C1673.2 149.859 1675 146.602 1675 142.664Z" fill="black"/>
<path d="M148.845 98.1982L139.013 112.679H70L78.2989 131.634C112.619 134.674 170.921 138.365 177.807 129.153C187.638 116.001 186.552 110.287 192.155 98.1982H148.845Z" fill="white"/>
<rect x="76.3057" y="96.6055" width="14.8797" height="14.8797" rx="2" fill="white"/>
<rect x="93.5771" y="96.6055" width="14.8797" height="14.8797" rx="2" fill="white"/>
<rect x="110.848" y="96.6055" width="14.8797" height="14.8797" rx="2" fill="white"/>
<rect x="128.119" y="96.6055" width="14.8797" height="14.8797" rx="2" fill="white"/>
<rect x="145.391" y="96.6055" width="14.8797" height="14.8797" rx="2" fill="white"/>
<rect x="110.848" y="78.8027" width="14.8797" height="14.8797" rx="2" fill="white"/>
<rect x="110.848" y="61" width="14.8797" height="14.8797" rx="2" fill="white"/>
<rect x="93.5771" y="78.8027" width="14.8797" height="14.8797" rx="2" fill="white"/>
<rect x="128.31" y="78.7979" width="14.8797" height="14.8797" rx="2" fill="white"/>
</svg>
