<svg width="600" height="600" viewBox="0 0 600 600" fill="none" xmlns="http://www.w3.org/2000/svg">
<path d="M312.087 579.307C509.379 386.496 598.097 270.644 599.969 71.655C600.019 66.2048 596.463 61.3149 591.265 59.6761C478.964 24.2732 389.278 4.30364 303.692 0.456999C296.631 0.139647 290.807 5.82848 290.807 12.8965V570.348C290.807 581.443 304.15 587.063 312.087 579.307Z" fill="#232526"/>
<path d="M287.915 579.307C90.6216 386.496 1.90518 270.644 0.0317977 71.655C-0.019515 66.2048 3.53942 61.3149 8.73777 59.6761C121.037 24.2732 210.724 4.30364 296.31 0.456999C303.371 0.139647 309.195 5.82852 309.195 12.8965V570.348C309.195 581.443 295.851 587.063 287.915 579.307Z" fill="black"/>
<path d="M350.632 232.877L327.471 267.219H164.896L184.446 312.172C265.295 319.378 402.637 328.133 418.859 306.287C442.017 275.096 439.457 261.546 452.657 232.877H350.632Z" fill="white"/>
<path d="M208.519 229.102H186.033C182.563 229.102 179.75 231.914 179.75 235.384V258.106C179.75 261.576 182.563 264.389 186.033 264.389H208.519C211.989 264.389 214.802 261.576 214.802 258.106V235.384C214.802 231.914 211.989 229.102 208.519 229.102Z" fill="white"/>
<path d="M249.207 229.102H226.72C223.25 229.102 220.438 231.914 220.438 235.384V258.106C220.438 261.576 223.25 264.389 226.72 264.389H249.207C252.677 264.389 255.49 261.576 255.49 258.106V235.384C255.49 231.914 252.677 229.102 249.207 229.102Z" fill="white"/>
<path d="M289.893 229.102H267.406C263.936 229.102 261.123 231.914 261.123 235.384V258.106C261.123 261.576 263.936 264.389 267.406 264.389H289.893C293.362 264.389 296.175 261.576 296.175 258.106V235.384C296.175 231.914 293.362 229.102 289.893 229.102Z" fill="white"/>
<path d="M330.58 229.102H308.093C304.623 229.102 301.811 231.914 301.811 235.384V258.106C301.811 261.576 304.623 264.389 308.093 264.389H330.58C334.05 264.389 336.863 261.576 336.863 258.106V235.384C336.863 231.914 334.05 229.102 330.58 229.102Z" fill="white"/>
<path d="M371.266 229.102H348.779C345.309 229.102 342.496 231.914 342.496 235.384V258.106C342.496 261.576 345.309 264.389 348.779 264.389H371.266C374.735 264.389 377.548 261.576 377.548 258.106V235.384C377.548 231.914 374.735 229.102 371.266 229.102Z" fill="white"/>
<path d="M289.893 186.881H267.406C263.936 186.881 261.123 189.694 261.123 193.164V215.886C261.123 219.356 263.936 222.168 267.406 222.168H289.893C293.362 222.168 296.175 219.356 296.175 215.886V193.164C296.175 189.694 293.362 186.881 289.893 186.881Z" fill="white"/>
<path d="M289.893 144.662H267.406C263.936 144.662 261.123 147.475 261.123 150.945V173.667C261.123 177.137 263.936 179.95 267.406 179.95H289.893C293.362 179.95 296.175 177.137 296.175 173.667V150.945C296.175 147.475 293.362 144.662 289.893 144.662Z" fill="white"/>
<path d="M249.207 186.881H226.72C223.25 186.881 220.438 189.694 220.438 193.164V215.886C220.438 219.356 223.25 222.168 226.72 222.168H249.207C252.677 222.168 255.49 219.356 255.49 215.886V193.164C255.49 189.694 252.677 186.881 249.207 186.881Z" fill="white"/>
<path d="M331.027 186.871H308.541C305.071 186.871 302.258 189.684 302.258 193.154V215.876C302.258 219.346 305.071 222.159 308.541 222.159H331.027C334.497 222.159 337.31 219.346 337.31 215.876V193.154C337.31 189.684 334.497 186.871 331.027 186.871Z" fill="white"/>
</svg>
