<svg width="900" height="900" viewBox="0 0 900 900" fill="none" xmlns="http://www.w3.org/2000/svg">
<path d="M468.129 868.961C764.068 579.745 897.145 405.967 899.953 107.483C900.029 99.3077 894.695 91.9729 886.896 89.5146C718.446 36.4103 583.917 6.45594 455.537 0.685986C444.946 0.209958 436.209 8.74322 436.209 19.3453V855.522C436.209 872.165 456.225 880.595 468.129 868.961Z" fill="#232526"/>
<path d="M431.872 868.961C135.932 579.745 2.85728 405.967 0.0472083 107.483C-0.0297608 99.3077 5.30864 91.9729 13.1062 89.5146C181.555 36.4103 316.085 6.45594 444.464 0.685986C455.055 0.209958 463.792 8.74326 463.792 19.3453V855.522C463.792 872.165 443.777 880.595 431.872 868.961Z" fill="black"/>
<path d="M525.948 349.315L491.206 400.829H247.345L276.669 468.257C397.942 479.067 603.956 492.2 628.289 459.431C663.026 412.644 659.186 392.318 678.986 349.315H525.948Z" fill="white"/>
<path d="M312.78 343.652H279.05C273.845 343.652 269.625 347.872 269.625 353.076V387.16C269.625 392.364 273.845 396.584 279.05 396.584H312.78C317.985 396.584 322.204 392.364 322.204 387.16V353.076C322.204 347.872 317.985 343.652 312.78 343.652Z" fill="white"/>
<path d="M373.811 343.652H340.081C334.876 343.652 330.657 347.872 330.657 353.076V387.16C330.657 392.364 334.876 396.584 340.081 396.584H373.811C379.016 396.584 383.235 392.364 383.235 387.16V353.076C383.235 347.872 379.016 343.652 373.811 343.652Z" fill="white"/>
<path d="M434.839 343.652H401.109C395.904 343.652 391.685 347.872 391.685 353.076V387.16C391.685 392.364 395.904 396.584 401.109 396.584H434.839C440.044 396.584 444.263 392.364 444.263 387.16V353.076C444.263 347.872 440.044 343.652 434.839 343.652Z" fill="white"/>
<path d="M495.87 343.652H462.14C456.935 343.652 452.716 347.872 452.716 353.076V387.16C452.716 392.364 456.935 396.584 462.14 396.584H495.87C501.075 396.584 505.294 392.364 505.294 387.16V353.076C505.294 347.872 501.075 343.652 495.87 343.652Z" fill="white"/>
<path d="M556.899 343.652H523.169C517.964 343.652 513.745 347.872 513.745 353.076V387.16C513.745 392.364 517.964 396.584 523.169 396.584H556.899C562.104 396.584 566.323 392.364 566.323 387.16V353.076C566.323 347.872 562.104 343.652 556.899 343.652Z" fill="white"/>
<path d="M434.839 280.321H401.109C395.904 280.321 391.685 284.541 391.685 289.745V323.828C391.685 329.033 395.904 333.253 401.109 333.253H434.839C440.044 333.253 444.263 329.033 444.263 323.828V289.745C444.263 284.541 440.044 280.321 434.839 280.321Z" fill="white"/>
<path d="M434.839 216.993H401.109C395.904 216.993 391.685 221.212 391.685 226.417V260.5C391.685 265.705 395.904 269.924 401.109 269.924H434.839C440.044 269.924 444.263 265.705 444.263 260.5V226.417C444.263 221.212 440.044 216.993 434.839 216.993Z" fill="white"/>
<path d="M373.811 280.321H340.081C334.876 280.321 330.657 284.541 330.657 289.745V323.828C330.657 329.033 334.876 333.253 340.081 333.253H373.811C379.016 333.253 383.235 329.033 383.235 323.828V289.745C383.235 284.541 379.016 280.321 373.811 280.321Z" fill="white"/>
<path d="M496.541 280.307H462.811C457.606 280.307 453.387 284.526 453.387 289.731V323.814C453.387 329.019 457.606 333.238 462.811 333.238H496.541C501.746 333.238 505.965 329.019 505.965 323.814V289.731C505.965 284.526 501.746 280.307 496.541 280.307Z" fill="white"/>
</svg>
