<svg width="300" height="300" viewBox="0 0 300 300" fill="none" xmlns="http://www.w3.org/2000/svg">
<path d="M152.21 293.392C254.099 194.189 299.534 135.964 299.996 34.1617C300.004 32.4266 298.867 30.8618 297.212 30.338C239.295 11.9994 193.407 1.80594 149.507 0.131801C147.258 0.0460603 145.403 1.85572 145.403 4.10571V290.56C145.403 294.093 149.679 295.857 152.21 293.392Z" fill="#232526"/>
<path d="M147.79 293.392C45.9013 194.189 0.46553 135.964 0.0038147 34.1617C-0.00405884 32.4266 1.13339 30.8618 2.78754 30.338C60.7054 11.9994 106.593 1.80594 150.493 0.131801C152.742 0.0460603 154.597 1.85572 154.597 4.10571V290.56C154.597 294.093 150.321 295.857 147.79 293.392Z" fill="black"/>
<path d="M175.316 116.439L163.737 133.611H82.4492L92.224 156.087C132.648 159.69 201.32 164.067 209.43 153.145C221.009 137.549 219.73 130.774 226.33 116.439H175.316Z" fill="white"/>
<rect x="89.877" y="114.551" width="17.5261" height="17.6437" rx="2" fill="white"/>
<rect x="110.22" y="114.551" width="17.5261" height="17.6437" rx="2" fill="white"/>
<rect x="130.562" y="114.551" width="17.5261" height="17.6437" rx="2" fill="white"/>
<rect x="150.905" y="114.551" width="17.5261" height="17.6437" rx="2" fill="white"/>
<rect x="171.249" y="114.551" width="17.5261" height="17.6437" rx="2" fill="white"/>
<rect x="130.562" y="93.4404" width="17.5261" height="17.6437" rx="2" fill="white"/>
<rect x="130.562" y="72.3311" width="17.5261" height="17.6437" rx="2" fill="white"/>
<rect x="110.22" y="93.4404" width="17.5261" height="17.6437" rx="2" fill="white"/>
<rect x="151.13" y="93.4355" width="17.5261" height="17.6437" rx="2" fill="white"/>
</svg>
