<svg width="600" height="520" viewBox="0 0 600 520" fill="none" xmlns="http://www.w3.org/2000/svg">
<path d="M303.324 299.951C407.554 199.031 454.161 139.362 454.802 35.628C454.814 33.5131 453.428 31.6096 451.41 30.9759C392.141 12.3597 345.063 1.96474 300.061 0.165039C297.325 0.0556306 295.068 2.25841 295.068 4.9964V296.48C295.068 300.771 300.241 302.936 303.324 299.951Z" fill="#2F8ACF"/>
<path d="M296.313 299.951C192.082 199.031 145.475 139.362 144.835 35.628C144.822 33.5131 146.208 31.6096 148.227 30.9759C207.497 12.3597 254.573 1.96474 299.575 0.165039C302.311 0.0556306 304.568 2.25841 304.568 4.9964V296.48C304.568 300.771 299.395 302.936 296.313 299.951Z" fill="#0071B4"/>
<path d="M144.404 449.895C142.424 468.119 135.887 482.064 124.794 491.731C113.78 501.398 99.0823 506.231 80.6999 506.231C67.8639 506.231 56.4939 503.021 46.5895 496.604C36.7644 490.187 29.1579 481.113 23.77 469.387C18.3822 457.581 15.6486 444.111 15.5693 428.978V406.515C15.5693 391.143 18.2633 377.514 23.6512 365.63C29.0392 353.744 36.7644 344.593 46.8273 338.175C56.9692 331.678 68.6167 328.429 81.7696 328.429C100.31 328.429 114.929 333.46 125.626 343.524C136.402 353.507 142.661 367.334 144.404 385.003H129.667C126.022 355.606 110.056 340.908 81.7696 340.908C66.0812 340.908 53.5621 346.772 44.2125 358.498C34.942 370.225 30.3068 386.429 30.3068 407.109V428.265C30.3068 448.232 34.8233 464.158 43.856 476.042C52.9678 487.928 65.2492 493.87 80.6999 493.87C95.9921 493.87 107.521 490.225 115.286 482.935C123.051 475.567 127.845 464.553 129.667 449.895H144.404ZM218.924 417.925L194.559 441.932V503.854H179.941V330.806H194.559V424.105L283.223 330.806H301.645L229.145 407.822L307.23 503.854H289.403L218.924 417.925ZM429.886 375.376C429.886 384.328 427.27 392.371 422.041 399.503C416.811 406.554 409.918 411.744 401.361 415.072C411.344 418.479 419.348 423.986 425.369 431.592C431.391 439.199 434.402 447.994 434.402 457.978C434.402 472.794 429.37 484.56 419.307 493.277C409.245 501.913 395.934 506.231 379.374 506.231C362.655 506.231 349.264 501.913 339.202 493.277C329.219 484.639 324.226 472.873 324.226 457.978C324.226 448.152 327.119 439.397 332.902 431.711C338.687 424.026 346.61 418.479 356.672 415.072C348.115 411.744 341.301 406.554 336.231 399.503C331.16 392.371 328.625 384.328 328.625 375.376C328.625 361.034 333.22 349.625 342.411 341.147C351.681 332.668 363.922 328.429 379.135 328.429C394.348 328.429 406.591 332.708 415.861 341.265C425.211 349.823 429.886 361.193 429.886 375.376ZM420.14 458.096C420.14 447.32 416.296 438.486 408.611 431.592C400.925 424.62 391.1 421.133 379.135 421.133C367.172 421.133 357.386 424.541 349.779 431.355C342.173 438.169 338.369 447.083 338.369 458.096C338.369 469.11 342.055 477.904 349.423 484.481C356.792 490.979 366.775 494.227 379.374 494.227C391.655 494.227 401.519 490.979 408.967 484.481C416.416 477.983 420.14 469.189 420.14 458.096ZM415.623 375.257C415.623 365.352 412.177 357.112 405.283 350.535C398.469 343.88 389.753 340.552 379.135 340.552C368.36 340.552 359.604 343.761 352.869 350.178C346.214 356.518 342.886 364.877 342.886 375.257C342.886 385.398 346.214 393.56 352.869 399.74C359.604 405.92 368.4 409.01 379.255 409.01C389.951 409.01 398.668 405.92 405.402 399.74C412.216 393.481 415.623 385.319 415.623 375.257ZM542.2 471.17C542.2 464.118 539.348 458.452 533.643 454.174C528.017 449.895 519.499 446.568 508.089 444.191C496.679 441.734 487.806 438.961 481.466 435.871C475.207 432.701 470.533 428.859 467.442 424.342C464.432 419.826 462.926 414.359 462.926 407.94C462.926 397.799 467.165 389.44 475.643 382.863C484.121 376.207 494.977 372.88 508.208 372.88C522.55 372.88 534.039 376.445 542.675 383.576C551.391 390.628 555.75 399.859 555.75 411.269H541.487C541.487 403.741 538.318 397.482 531.978 392.49C525.719 387.499 517.796 385.003 508.208 385.003C498.859 385.003 491.332 387.102 485.626 391.302C480.001 395.422 477.189 400.81 477.189 407.466C477.189 413.883 479.525 418.875 484.201 422.44C488.955 425.927 497.552 429.136 509.991 432.068C522.51 434.999 531.86 438.129 538.04 441.456C544.3 444.785 548.935 448.787 551.946 453.461C554.957 458.136 556.463 463.801 556.463 470.457C556.463 481.312 552.064 489.988 543.27 496.485C534.554 502.982 523.144 506.231 509.041 506.231C494.065 506.231 481.903 502.626 472.553 495.415C463.283 488.126 458.647 478.935 458.647 467.842H472.909C473.464 476.161 476.951 482.659 483.369 487.334C489.866 491.929 498.423 494.227 509.041 494.227C518.945 494.227 526.947 492.047 533.048 487.69C539.149 483.332 542.2 477.825 542.2 471.17Z" fill="#005E95"/>
<path d="M325.978 119.512L314.012 137.136H230.021L240.121 160.205C281.889 163.904 352.845 168.396 361.226 157.186C373.19 141.178 371.869 134.224 378.688 119.512H325.978Z" fill="white"/>
<path d="M253.369 117.572H240.128C238.784 117.572 237.694 118.662 237.694 120.006V133.247C237.694 134.592 238.784 135.681 240.128 135.681H253.369C254.714 135.681 255.804 134.592 255.804 133.247V120.006C255.804 118.662 254.714 117.572 253.369 117.572Z" fill="white"/>
<path d="M274.39 117.572H261.149C259.805 117.572 258.715 118.662 258.715 120.006V133.247C258.715 134.592 259.805 135.681 261.149 135.681H274.39C275.734 135.681 276.824 134.592 276.824 133.247V120.006C276.824 118.662 275.734 117.572 274.39 117.572Z" fill="white"/>
<path d="M295.408 117.572H282.167C280.823 117.572 279.733 118.662 279.733 120.006V133.247C279.733 134.592 280.823 135.681 282.167 135.681H295.408C296.753 135.681 297.843 134.592 297.843 133.247V120.006C297.843 118.662 296.753 117.572 295.408 117.572Z" fill="white"/>
<path d="M316.429 117.572H303.188C301.844 117.572 300.754 118.662 300.754 120.006V133.247C300.754 134.592 301.844 135.681 303.188 135.681H316.429C317.773 135.681 318.863 134.592 318.863 133.247V120.006C318.863 118.662 317.773 117.572 316.429 117.572Z" fill="white"/>
<path d="M337.449 117.572H324.208C322.863 117.572 321.773 118.662 321.773 120.006V133.247C321.773 134.592 322.863 135.681 324.208 135.681H337.449C338.793 135.681 339.883 134.592 339.883 133.247V120.006C339.883 118.662 338.793 117.572 337.449 117.572Z" fill="white"/>
<path d="M295.408 95.9062H282.167C280.823 95.9062 279.733 96.996 279.733 98.3403V111.581C279.733 112.926 280.823 114.015 282.167 114.015H295.408C296.753 114.015 297.843 112.926 297.843 111.581V98.3403C297.843 96.996 296.753 95.9062 295.408 95.9062Z" fill="white"/>
<path d="M295.408 74.2393H282.167C280.823 74.2393 279.733 75.329 279.733 76.6733V89.9143C279.733 91.2587 280.823 92.3484 282.167 92.3484H295.408C296.753 92.3484 297.843 91.2587 297.843 89.9143V76.6733C297.843 75.329 296.753 74.2393 295.408 74.2393Z" fill="white"/>
<path d="M274.39 95.9062H261.149C259.805 95.9062 258.715 96.996 258.715 98.3403V111.581C258.715 112.926 259.805 114.015 261.149 114.015H274.39C275.734 114.015 276.824 112.926 276.824 111.581V98.3403C276.824 96.996 275.734 95.9062 274.39 95.9062Z" fill="white"/>
<path d="M316.66 95.9004H303.419C302.075 95.9004 300.985 96.9902 300.985 98.3345V111.575C300.985 112.92 302.075 114.01 303.419 114.01H316.66C318.005 114.01 319.094 112.92 319.094 111.575V98.3345C319.094 96.9902 318.005 95.9004 316.66 95.9004Z" fill="white"/>
</svg>
