<svg width="600" height="198" viewBox="0 0 600 198" fill="none" xmlns="http://www.w3.org/2000/svg">
<path d="M101.479 192.047C168.214 127.432 198.054 89.2284 198.465 22.8116C198.472 21.4574 197.585 20.2387 196.293 19.833C158.345 7.91379 128.203 1.25829 99.3897 0.106017C97.638 0.0359668 96.1934 1.44632 96.1934 3.19934V189.824C96.1934 192.572 99.5051 193.958 101.479 192.047Z" fill="#2F8ACF"/>
<path d="M96.9893 192.047C30.2545 127.432 0.414383 89.2284 0.00396476 22.8116C-0.00439389 21.4574 0.883659 20.2387 2.17565 19.833C40.1237 7.91379 70.2654 1.25829 99.0783 0.106017C100.83 0.0359668 102.275 1.44632 102.275 3.19934V189.824C102.275 192.572 98.963 193.958 96.9893 192.047Z" fill="#0071B4"/>
<path d="M308.3 117.401C307.032 129.069 302.847 137.997 295.744 144.186C288.693 150.376 279.283 153.47 267.513 153.47C259.295 153.47 252.015 151.415 245.673 147.306C239.383 143.198 234.513 137.388 231.063 129.881C227.613 122.321 225.863 113.697 225.812 104.008V89.6261C225.812 79.7838 227.538 71.0584 230.987 63.4488C234.437 55.8393 239.383 49.9798 245.826 45.8707C252.319 41.7108 259.776 39.6309 268.198 39.6309C280.069 39.6309 289.429 42.8522 296.277 49.295C303.177 55.687 307.184 64.5395 308.3 75.8525H298.864C296.531 57.0314 286.309 47.6209 268.198 47.6209C258.153 47.6209 250.137 51.375 244.151 58.8831C238.216 66.3912 235.248 76.7656 235.248 90.0064V103.552C235.248 116.335 238.14 126.532 243.923 134.141C249.757 141.751 257.62 145.556 267.513 145.556C277.304 145.556 284.685 143.222 289.657 138.555C294.629 133.838 297.698 126.786 298.864 117.401H308.3ZM356.012 96.9313L340.412 112.302V151.948H331.053V41.1528H340.412V100.888L397.18 41.1528H408.975L362.556 90.463L412.551 151.948H401.137L356.012 96.9313ZM491.083 69.6887C491.083 75.4213 489.408 80.57 486.06 85.1363C482.711 89.6511 478.298 92.9737 472.819 95.1048C479.211 97.2859 484.335 100.812 488.191 105.682C492.046 110.552 493.974 116.184 493.974 122.575C493.974 132.062 490.752 139.595 484.31 145.176C477.867 150.705 469.345 153.47 458.742 153.47C448.038 153.47 439.464 150.705 433.021 145.176C426.629 139.646 423.433 132.112 423.433 122.575C423.433 116.285 425.285 110.679 428.988 105.758C432.692 100.838 437.764 97.2859 444.207 95.1048C438.728 92.9737 434.365 89.6511 431.119 85.1363C427.872 80.57 426.249 75.4213 426.249 69.6887C426.249 60.5064 429.191 53.2012 435.076 47.7731C441.011 42.3449 448.849 39.6309 458.589 39.6309C468.329 39.6309 476.168 42.3703 482.103 47.8491C488.09 53.3281 491.083 60.6079 491.083 69.6887ZM484.843 122.651C484.843 115.752 482.382 110.095 477.461 105.682C472.54 101.218 466.25 98.9854 458.589 98.9854C450.929 98.9854 444.664 101.167 439.793 105.53C434.923 109.893 432.488 115.6 432.488 122.651C432.488 129.703 434.848 135.334 439.565 139.545C444.283 143.705 450.675 145.785 458.742 145.785C466.605 145.785 472.92 143.705 477.689 139.545C482.458 135.384 484.843 129.754 484.843 122.651ZM481.951 69.6125C481.951 63.2712 479.744 57.9953 475.331 53.7846C470.968 49.5233 465.387 47.3926 458.589 47.3926C451.69 47.3926 446.084 49.4472 441.772 53.5564C437.511 57.6148 435.38 62.9669 435.38 69.6125C435.38 76.1061 437.511 81.3313 441.772 85.2882C446.084 89.2451 451.716 91.2235 458.665 91.2235C465.514 91.2235 471.095 89.2451 475.406 85.2882C479.769 81.2807 481.951 76.0554 481.951 69.6125ZM562.993 131.022C562.993 126.507 561.166 122.879 557.514 120.14C553.912 117.401 548.458 115.27 541.153 113.748C533.848 112.175 528.166 110.4 524.107 108.422C520.1 106.392 517.107 103.932 515.129 101.04C513.201 98.1485 512.237 94.6482 512.237 90.5386C512.237 84.0454 514.951 78.6937 520.379 74.4827C525.807 70.2214 532.758 68.0906 541.229 68.0906C550.412 68.0906 557.768 70.3735 563.297 74.9393C568.878 79.4542 571.668 85.3646 571.668 92.6698H562.536C562.536 87.8503 560.507 83.8428 556.448 80.6464C552.441 77.4504 547.368 75.8525 541.229 75.8525C535.243 75.8525 530.424 77.1968 526.771 79.8859C523.169 82.5235 521.369 85.9732 521.369 90.2347C521.369 94.3435 522.865 97.5399 525.858 99.8222C528.902 102.055 534.406 104.11 542.371 105.987C550.386 107.863 556.373 109.867 560.33 111.998C564.337 114.129 567.305 116.691 569.233 119.684C571.161 122.677 572.125 126.304 572.125 130.566C572.125 137.515 569.309 143.071 563.678 147.23C558.097 151.39 550.792 153.47 541.762 153.47C532.174 153.47 524.387 151.162 518.401 146.545C512.465 141.878 509.497 135.994 509.497 128.891H518.629C518.984 134.218 521.217 138.378 525.325 141.371C529.486 144.313 534.964 145.785 541.762 145.785C548.104 145.785 553.227 144.389 557.133 141.599C561.039 138.809 562.993 135.283 562.993 131.022Z" fill="#005E95"/>
<path d="M115.983 76.5176L108.321 87.8013H54.5449L61.0116 102.571C87.7545 104.94 133.185 107.816 138.55 100.638C146.211 90.3899 145.365 85.9374 149.731 76.5176H115.983Z" fill="white"/>
<path d="M69.4932 75.2773H61.0155C60.1548 75.2773 59.457 75.9751 59.457 76.8358V85.3135C59.457 86.1742 60.1548 86.8719 61.0155 86.8719H69.4932C70.3539 86.8719 71.0516 86.1742 71.0516 85.3135V76.8358C71.0516 75.9751 70.3539 75.2773 69.4932 75.2773Z" fill="white"/>
<path d="M82.9541 75.2773H74.4764C73.6157 75.2773 72.918 75.9751 72.918 76.8358V85.3135C72.918 86.1742 73.6157 86.8719 74.4764 86.8719H82.9541C83.8148 86.8719 84.5125 86.1742 84.5125 85.3135V76.8358C84.5125 75.9751 83.8148 75.2773 82.9541 75.2773Z" fill="white"/>
<path d="M96.4112 75.2773H87.9334C87.0727 75.2773 86.375 75.9751 86.375 76.8358V85.3135C86.375 86.1742 87.0727 86.8719 87.9334 86.8719H96.4112C97.2719 86.8719 97.9696 86.1742 97.9696 85.3135V76.8358C97.9696 75.9751 97.2719 75.2773 96.4112 75.2773Z" fill="white"/>
<path d="M109.868 75.2773H101.39C100.53 75.2773 99.832 75.9751 99.832 76.8358V85.3135C99.832 86.1742 100.53 86.8719 101.39 86.8719H109.868C110.729 86.8719 111.427 86.1742 111.427 85.3135V76.8358C111.427 75.9751 110.729 75.2773 109.868 75.2773Z" fill="white"/>
<path d="M123.329 75.2773H114.851C113.991 75.2773 113.293 75.9751 113.293 76.8358V85.3135C113.293 86.1742 113.991 86.8719 114.851 86.8719H123.329C124.19 86.8719 124.888 86.1742 124.888 85.3135V76.8358C124.888 75.9751 124.19 75.2773 123.329 75.2773Z" fill="white"/>
<path d="M96.4112 61.4043H87.9334C87.0727 61.4043 86.375 62.102 86.375 62.9627V71.4404C86.375 72.3011 87.0727 72.9989 87.9334 72.9989H96.4112C97.2719 72.9989 97.9696 72.3011 97.9696 71.4404V62.9627C97.9696 62.102 97.2719 61.4043 96.4112 61.4043Z" fill="white"/>
<path d="M96.4112 47.5322H87.9334C87.0727 47.5322 86.375 48.23 86.375 49.0907V57.5684C86.375 58.4291 87.0727 59.1268 87.9334 59.1268H96.4112C97.2719 59.1268 97.9696 58.4291 97.9696 57.5684V49.0907C97.9696 48.23 97.2719 47.5322 96.4112 47.5322Z" fill="white"/>
<path d="M82.9541 61.4043H74.4764C73.6157 61.4043 72.918 62.102 72.918 62.9627V71.4404C72.918 72.3011 73.6157 72.9989 74.4764 72.9989H82.9541C83.8148 72.9989 84.5125 72.3011 84.5125 71.4404V62.9627C84.5125 62.102 83.8148 61.4043 82.9541 61.4043Z" fill="white"/>
<path d="M110.017 61.4014H101.539C100.678 61.4014 99.9805 62.0991 99.9805 62.9598V71.4375C99.9805 72.2982 100.678 72.9959 101.539 72.9959H110.017C110.877 72.9959 111.575 72.2982 111.575 71.4375V62.9598C111.575 62.0991 110.877 61.4014 110.017 61.4014Z" fill="white"/>
</svg>
